<?xml version="1.0" encoding="UTF-8"?><svg id="a" xmlns="http://www.w3.org/2000/svg" viewBox="0 0 40 40"><defs><style>.b{fill:#fff;}.c{fill:#00a63e;}</style></defs><rect class="c" width="40" height="40" rx="3" ry="3"/><g><path class="b" d="M7.18598,9.15104c1.07523,.32799,2.25018,.61032,3.49904,.84487,.75906,16.69681-3.63127,15.89096,9.3431,12.41062,12.97726,3.48554,8.58326,4.27279,9.3431-12.41061,1.48121-.48847,4.84256-.34341,4.3693-2.47597-.77732-1.86919-2.88498-.25874-4.3693-.18455,.05881-.7068-.48132-1.33967-1.19764-1.33536,.00001,0-16.29093,0-16.29093,0-.71509-.00431-1.25775,.6286-1.19762,1.33536-.96892-.19618-1.88418-.42344-2.72975-.68139-1.62063-.52112-2.4048,2.02474-.76929,2.49705h0s0,0,0,0Zm19.63612,12.45206c-7.70434-2.14155-5.89997-2.13326-13.58797,0V10.39434c4.26688,.55276,9.32108,.55276,13.58797,0v11.20876h0Z"/><path class="b" d="M34.02395,26.78265c-2.4898-.69447-5.46885-1.1841-8.68071-1.44212-.15923-.43587-4.49624-1.54932-4.9126-1.75039-.26182-.08266-.54319-.08266-.80499,.00007-.43095,.20699-4.73313,1.30532-4.91262,1.75032-2.23498,.368-10.624,.57806-9.63187,3.12547,.20454,.72643,.96283,1.15079,1.69202,.94662,2.18333-.60898,4.78288-1.05027,7.60049-1.3033v3.24442h-2.13151c-1.72428-.02523-1.7261,2.67157,.00012,2.6461-.00012,0,3.46115,0,3.46115,0,.73442,0,1.32976-.59224,1.32976-1.32299v-4.74672c1.96062-.09161,4.02928-.09161,5.98989,0v3.65353c0,.73075,.59534,1.32299,1.32976,1.32299h3.46113c1.72439,.02504,1.72599-2.67133-.00012-2.6461,.00012,0-2.13125,0-2.13125,0v-2.15122c3.00366,.22839,5.57424,.80884,7.97157,1.35452,1.53685,.04743,1.88674-2.30366,.36978-2.68117h0Z"/><path class="b" d="M17.4977,15.06125c-2.29103,.01024-2.29084,3.47624,.00011,3.48615,2.29091-.01022,2.29071-3.47623-.00011-3.48615Z"/><path class="b" d="M22.55853,18.5474c2.29103-.01024,2.29084-3.47624-.00011-3.48615-2.2909,.01023-2.29071,3.47623,.00011,3.48615Z"/></g></svg>